<svg width="64" height="64" viewBox="0 0 64 64" fill="none" xmlns="http://www.w3.org/2000/svg">
  <rect width="64" height="64" fill="#F3F4F6" />
  <rect x="14" y="19" width="36" height="24" rx="12" fill="#D1D5DB" />
  <path d="M13 59C13 52.3726 18.3726 47 25 47H39C45.6274 47 51 52.3726 51 59V64H13V59Z" fill="#6B7280" />
  <path fill-rule="evenodd" clip-rule="evenodd"
    d="M26 16C24.3431 16 23 17.3431 23 19C23 20.6569 24.3431 22 26 22H38C39.6569 22 41 20.6569 41 19C41 17.3431 39.6569 16 38 16H26ZM27 31C28.1046 31 29 30.1046 29 29C29 27.8954 28.1046 27 27 27C25.8954 27 25 27.8954 25 29C25 30.1046 25.8954 31 27 31ZM29.1567 33.6112C29.0464 33.3982 29 33.1922 29 33H27C27 33.5252 27.1293 34.0454 27.3806 34.5307C27.6318 35.016 28.0001 35.457 28.4645 35.8284C28.9287 36.1998 29.4799 36.4945 30.0866 36.6955C30.6932 36.8965 31.3434 37 32 37C32.6566 37 33.3068 36.8965 33.9134 36.6955C34.5201 36.4945 35.0713 36.1998 35.5355 35.8284C35.9999 35.457 36.3682 35.016 36.6194 34.5307C36.8707 34.0454 37 33.5252 37 33H35C35 33.1922 34.9536 33.3982 34.8433 33.6112C34.7317 33.8268 34.5513 34.0546 34.2861 34.2667C34.0204 34.4793 33.6828 34.665 33.2843 34.797C32.8862 34.929 32.4488 35 32 35C31.5512 35 31.1138 34.929 30.7157 34.797C30.3172 34.665 29.9796 34.4793 29.7139 34.2667C29.4487 34.0546 29.2683 33.8268 29.1567 33.6112ZM39 29C39 30.1046 38.1046 31 37 31C35.8954 31 35 30.1046 35 29C35 27.8954 35.8954 27 37 27C38.1046 27 39 27.8954 39 29Z"
    fill="#030712" />
</svg>